<svg width="255" height="201" viewBox="0 0 255 201" fill="none" xmlns="http://www.w3.org/2000/svg">
<path d="M126.854 4.45646C124.154 3.14325 121.001 3.14324 118.301 4.45645L42.6004 41.2806C38.5894 43.2317 36.4077 47.6503 37.2972 52.021L57.7626 152.584C58.2797 155.124 59.785 157.356 61.9473 158.787L117.183 195.338C120.454 197.502 124.702 197.502 127.973 195.338L183.208 158.787C185.37 157.356 186.876 155.124 187.393 152.584L207.858 52.0211C208.748 47.6503 206.566 43.2317 202.555 41.2806L126.854 4.45646Z" stroke="#FF6B00" stroke-width="6.51724"/>
<path d="M119.73 17.1585C121.528 16.2855 123.627 16.2855 125.424 17.1585L191.856 49.42C194.525 50.7161 195.981 53.6513 195.399 56.5606L177.368 146.717C177.027 148.421 176.02 149.918 174.57 150.876L126.17 182.851C123.991 184.29 121.164 184.29 118.985 182.851L70.585 150.876C69.135 149.918 68.1276 148.421 67.7867 146.717L49.7556 56.5606C49.1737 53.6513 50.6303 50.7161 53.2992 49.42L119.73 17.1585Z" fill="#F1B51C"/>
<path d="M84.8998 99.2781H160.255C161.029 99.2794 161.773 99.5741 162.338 100.103C162.903 100.632 163.246 101.355 163.298 102.127C163.351 102.899 163.108 103.662 162.62 104.262C162.131 104.862 161.433 105.254 160.667 105.359L160.255 105.388H84.9039C84.1244 105.396 83.3713 105.106 82.7989 104.576C82.2265 104.047 81.8781 103.319 81.825 102.541C81.7719 101.764 82.0181 100.995 82.5133 100.393C83.0084 99.7907 83.7151 99.4006 84.4884 99.3025L84.9039 99.2781H160.251H84.9039H84.8998ZM148.036 52.4354C151.97 52.4354 155.164 55.6289 155.164 59.5637V90.1132C155.164 92.0037 154.413 93.8168 153.076 95.1536C151.739 96.4905 149.926 97.2415 148.036 97.2415H97.1197C95.2291 97.2415 93.416 96.4905 92.0792 95.1536C90.7424 93.8168 89.9914 92.0037 89.9914 90.1132V59.5637C89.9914 55.6289 93.1808 52.4354 97.1197 52.4354H148.036ZM148.036 58.5453H97.1197C96.8496 58.5453 96.5906 58.6526 96.3996 58.8436C96.2086 59.0346 96.1013 59.2936 96.1013 59.5637V90.1132C96.1013 90.6753 96.5575 91.1315 97.1197 91.1315H148.036C148.306 91.1315 148.565 91.0243 148.756 90.8333C148.947 90.6423 149.054 90.3833 149.054 90.1132V59.5637C149.054 59.2936 148.947 59.0346 148.756 58.8436C148.565 58.6526 148.306 58.5453 148.036 58.5453Z" fill="white"/>
<g filter="url(#filter0_d_98_3851)">
<path d="M19.9312 121.681H235L219.008 144.491L235 167.302H19.9312L35.9237 144.491L19.9312 121.681Z" fill="#FF6B00"/>
<path d="M46.0651 152.827V137.577H48.2785V150.741H55.1835V152.827H46.0651ZM60.2117 153.145C59.3645 153.145 58.6549 152.99 58.083 152.679C57.5111 152.361 57.0769 151.945 56.7804 151.43C56.4909 150.907 56.3462 150.335 56.3462 149.714C56.3462 149.135 56.4485 148.627 56.6533 148.189C56.858 147.751 57.1616 147.38 57.5641 147.077C57.9665 146.766 58.4607 146.516 59.0467 146.325C59.5551 146.177 60.1305 146.046 60.773 145.933C61.4155 145.82 62.0898 145.714 62.7958 145.615C63.5089 145.516 64.2149 145.418 64.9139 145.319L64.109 145.764C64.1231 144.867 63.9325 144.203 63.5371 143.773C63.1488 143.335 62.4781 143.116 61.5249 143.116C60.9248 143.116 60.3741 143.257 59.8728 143.54C59.3715 143.815 59.022 144.274 58.8243 144.916L56.7592 144.281C57.0416 143.3 57.5782 142.519 58.369 141.94C59.1668 141.361 60.2258 141.072 61.5461 141.072C62.5699 141.072 63.4595 141.248 64.2149 141.602C64.9774 141.947 65.5352 142.498 65.8882 143.254C66.0718 143.628 66.1848 144.023 66.2271 144.44C66.2695 144.856 66.2907 145.305 66.2907 145.785V152.827H64.3314V150.212L64.7127 150.55C64.2396 151.426 63.636 152.079 62.9017 152.51C62.1745 152.933 61.2778 153.145 60.2117 153.145ZM60.6036 151.334C61.2319 151.334 61.772 151.225 62.2239 151.006C62.6758 150.78 63.0394 150.494 63.3147 150.148C63.5901 149.802 63.7701 149.442 63.8548 149.068C63.9749 148.729 64.0419 148.348 64.0561 147.924C64.0772 147.5 64.0878 147.162 64.0878 146.907L64.808 147.172C64.109 147.278 63.4736 147.373 62.9017 147.458C62.3298 147.543 61.8109 147.628 61.3449 147.712C60.886 147.79 60.4765 147.885 60.1164 147.998C59.8128 148.104 59.541 148.231 59.3009 148.379C59.0679 148.528 58.8808 148.708 58.7396 148.92C58.6055 149.131 58.5384 149.389 58.5384 149.693C58.5384 149.989 58.6125 150.265 58.7608 150.519C58.9091 150.766 59.135 150.964 59.4386 151.112C59.7422 151.26 60.1305 151.334 60.6036 151.334ZM74.4101 153.145C73.3158 153.145 72.3979 152.88 71.6566 152.351C70.9152 151.814 70.3539 151.091 69.9727 150.18C69.5914 149.269 69.4008 148.242 69.4008 147.098C69.4008 145.954 69.5879 144.927 69.9621 144.016C70.3434 143.105 70.9011 142.389 71.6354 141.866C72.3767 141.337 73.2875 141.072 74.3677 141.072C75.4409 141.072 76.3658 141.337 77.1425 141.866C77.9262 142.389 78.5298 143.105 78.9534 144.016C79.3771 144.92 79.5889 145.947 79.5889 147.098C79.5889 148.242 79.3771 149.273 78.9534 150.19C78.5369 151.101 77.9403 151.821 77.1636 152.351C76.3941 152.88 75.4762 153.145 74.4101 153.145ZM69.0301 157.911V141.39H71V149.619H71.2541V157.911H69.0301ZM74.103 151.144C74.809 151.144 75.3915 150.964 75.8504 150.603C76.3164 150.243 76.6624 149.76 76.8883 149.153C77.1213 148.538 77.2378 147.853 77.2378 147.098C77.2378 146.35 77.1213 145.672 76.8883 145.065C76.6624 144.457 76.3129 143.974 75.8398 143.614C75.3668 143.254 74.7631 143.074 74.0289 143.074C73.3369 143.074 72.7651 143.243 72.3132 143.582C71.8684 143.921 71.5366 144.394 71.3177 145.001C71.1059 145.608 71 146.307 71 147.098C71 147.889 71.1059 148.588 71.3177 149.195C71.5295 149.802 71.8649 150.279 72.3238 150.625C72.7827 150.971 73.3758 151.144 74.103 151.144ZM88.4722 152.827C87.752 152.969 87.046 153.029 86.3541 153.007C85.6621 152.986 85.0444 152.852 84.5007 152.605C83.9571 152.358 83.5476 151.97 83.2722 151.44C83.0251 150.967 82.891 150.487 82.8698 150C82.8557 149.506 82.8486 148.948 82.8486 148.326V138.213H85.0726V148.221C85.0726 148.68 85.0761 149.078 85.0832 149.417C85.0973 149.756 85.1715 150.042 85.3056 150.275C85.5598 150.713 85.9622 150.964 86.5129 151.027C87.0707 151.084 87.7238 151.059 88.4722 150.953V152.827ZM80.6564 143.169V141.39H88.4722V143.169H80.6564ZM95.3335 153.145C94.1897 153.145 93.1977 152.887 92.3576 152.372C91.5174 151.857 90.8678 151.147 90.4089 150.243C89.957 149.333 89.7311 148.284 89.7311 147.098C89.7311 145.905 89.9641 144.856 90.4301 143.953C90.8961 143.042 91.5492 142.336 92.3893 141.834C93.2295 141.326 94.2109 141.072 95.3335 141.072C96.4773 141.072 97.4693 141.33 98.3094 141.845C99.1496 142.36 99.7992 143.07 100.258 143.974C100.717 144.878 100.946 145.919 100.946 147.098C100.946 148.291 100.713 149.343 100.247 150.254C99.7886 151.158 99.139 151.867 98.2988 152.383C97.4587 152.891 96.4702 153.145 95.3335 153.145ZM95.3335 151.059C96.4279 151.059 97.2433 150.692 97.7799 149.957C98.3236 149.216 98.5954 148.263 98.5954 147.098C98.5954 145.905 98.32 144.952 97.7693 144.239C97.2257 143.518 96.4137 143.158 95.3335 143.158C94.5922 143.158 93.9814 143.328 93.5013 143.667C93.0212 143.998 92.6647 144.461 92.4317 145.054C92.1987 145.64 92.0822 146.321 92.0822 147.098C92.0822 148.298 92.3576 149.258 92.9083 149.979C93.459 150.699 94.2674 151.059 95.3335 151.059ZM108.643 153.145C107.549 153.145 106.631 152.88 105.89 152.351C105.148 151.814 104.587 151.091 104.206 150.18C103.824 149.269 103.634 148.242 103.634 147.098C103.634 145.954 103.821 144.927 104.195 144.016C104.576 143.105 105.134 142.389 105.868 141.866C106.61 141.337 107.521 141.072 108.601 141.072C109.674 141.072 110.599 141.337 111.375 141.866C112.159 142.389 112.763 143.105 113.186 144.016C113.61 144.92 113.822 145.947 113.822 147.098C113.822 148.242 113.61 149.273 113.186 150.19C112.77 151.101 112.173 151.821 111.397 152.351C110.627 152.88 109.709 153.145 108.643 153.145ZM103.263 157.911V141.39H105.233V149.619H105.487V157.911H103.263ZM108.336 151.144C109.042 151.144 109.625 150.964 110.083 150.603C110.549 150.243 110.895 149.76 111.121 149.153C111.354 148.538 111.471 147.853 111.471 147.098C111.471 146.35 111.354 145.672 111.121 145.065C110.895 144.457 110.546 143.974 110.073 143.614C109.6 143.254 108.996 143.074 108.262 143.074C107.57 143.074 106.998 143.243 106.546 143.582C106.101 143.921 105.77 144.394 105.551 145.001C105.339 145.608 105.233 146.307 105.233 147.098C105.233 147.889 105.339 148.588 105.551 149.195C105.763 149.802 106.098 150.279 106.557 150.625C107.016 150.971 107.609 151.144 108.336 151.144ZM120.401 152.827V137.577H126.564C126.713 137.577 126.896 137.584 127.115 137.598C127.334 137.605 127.542 137.627 127.74 137.662C128.587 137.796 129.293 138.085 129.858 138.53C130.43 138.975 130.857 139.536 131.139 140.214C131.422 140.892 131.563 141.64 131.563 142.459C131.563 143.674 131.252 144.722 130.631 145.605C130.01 146.48 129.078 147.027 127.835 147.246L126.935 147.352H122.614V152.827H120.401ZM129.318 152.827L126.31 146.621L128.545 146.05L131.849 152.827H129.318ZM122.614 145.255H126.48C126.621 145.255 126.776 145.248 126.946 145.234C127.122 145.22 127.288 145.195 127.443 145.16C127.895 145.054 128.259 144.86 128.534 144.577C128.809 144.288 129.007 143.956 129.127 143.582C129.247 143.208 129.307 142.834 129.307 142.459C129.307 142.085 129.247 141.714 129.127 141.347C129.007 140.973 128.809 140.645 128.534 140.362C128.259 140.073 127.895 139.875 127.443 139.769C127.288 139.727 127.122 139.699 126.946 139.685C126.776 139.671 126.621 139.663 126.48 139.663H122.614V145.255ZM139.249 153.145C138.113 153.145 137.114 152.898 136.252 152.404C135.398 151.903 134.731 151.207 134.251 150.318C133.778 149.421 133.541 148.383 133.541 147.204C133.541 145.954 133.774 144.87 134.24 143.953C134.713 143.035 135.37 142.325 136.21 141.824C137.05 141.323 138.028 141.072 139.143 141.072C140.308 141.072 141.3 141.344 142.119 141.887C142.938 142.424 143.549 143.19 143.952 144.186C144.361 145.181 144.523 146.364 144.439 147.733H142.225V146.929C142.211 145.601 141.957 144.62 141.463 143.984C140.976 143.349 140.231 143.031 139.228 143.031C138.12 143.031 137.287 143.381 136.729 144.08C136.171 144.779 135.892 145.788 135.892 147.109C135.892 148.365 136.171 149.34 136.729 150.032C137.287 150.716 138.091 151.059 139.143 151.059C139.835 151.059 140.432 150.904 140.933 150.593C141.442 150.275 141.837 149.823 142.119 149.237L144.29 149.926C143.846 150.949 143.171 151.744 142.268 152.309C141.364 152.866 140.358 153.145 139.249 153.145ZM135.172 147.733V146.007H143.337V147.733H135.172ZM151.358 153.145C150.292 153.145 149.371 152.88 148.594 152.351C147.824 151.821 147.228 151.101 146.804 150.19C146.388 149.273 146.179 148.242 146.179 147.098C146.179 145.947 146.391 144.92 146.815 144.016C147.238 143.105 147.839 142.389 148.615 141.866C149.399 141.337 150.327 141.072 151.401 141.072C152.481 141.072 153.388 141.337 154.122 141.866C154.864 142.389 155.421 143.105 155.796 144.016C156.177 144.927 156.367 145.954 156.367 147.098C156.367 148.242 156.177 149.269 155.796 150.18C155.414 151.091 154.853 151.814 154.112 152.351C153.37 152.88 152.453 153.145 151.358 153.145ZM151.665 151.144C152.392 151.144 152.986 150.971 153.444 150.625C153.903 150.279 154.239 149.802 154.451 149.195C154.662 148.588 154.768 147.889 154.768 147.098C154.768 146.307 154.659 145.608 154.44 145.001C154.228 144.394 153.896 143.921 153.444 143.582C153 143.243 152.431 143.074 151.739 143.074C151.005 143.074 150.401 143.254 149.928 143.614C149.455 143.974 149.102 144.457 148.869 145.065C148.643 145.672 148.53 146.35 148.53 147.098C148.53 147.853 148.643 148.538 148.869 149.153C149.102 149.76 149.448 150.243 149.907 150.603C150.373 150.964 150.959 151.144 151.665 151.144ZM154.514 157.911V149.619H154.768V141.39H156.738V157.911H154.514ZM164.012 153.135C163.221 153.135 162.557 153.007 162.021 152.753C161.484 152.499 161.046 152.167 160.707 151.758C160.376 151.341 160.121 150.889 159.945 150.402C159.768 149.915 159.648 149.438 159.585 148.973C159.521 148.507 159.49 148.097 159.49 147.744V141.39H161.735V147.013C161.735 147.458 161.77 147.917 161.841 148.39C161.918 148.856 162.059 149.29 162.264 149.693C162.476 150.095 162.769 150.42 163.143 150.667C163.525 150.914 164.019 151.038 164.626 151.038C165.021 151.038 165.396 150.974 165.749 150.847C166.102 150.713 166.409 150.501 166.67 150.212C166.938 149.922 167.146 149.541 167.295 149.068C167.45 148.595 167.528 148.019 167.528 147.342L168.904 147.861C168.904 148.898 168.71 149.816 168.322 150.614C167.934 151.405 167.376 152.023 166.649 152.467C165.922 152.912 165.042 153.135 164.012 153.135ZM167.792 152.827V149.523H167.528V141.39H169.762V152.827H167.792ZM172.944 139.515V137.365H175.158V139.515H172.944ZM172.944 152.827V141.39H175.158V152.827H172.944ZM178.338 152.827V141.39H180.308V144.164L180.033 143.804C180.174 143.437 180.357 143.102 180.583 142.798C180.809 142.488 181.071 142.233 181.367 142.036C181.657 141.824 181.978 141.662 182.331 141.549C182.691 141.429 183.058 141.358 183.432 141.337C183.806 141.309 184.166 141.326 184.512 141.39V143.465C184.138 143.367 183.722 143.338 183.263 143.381C182.811 143.423 182.394 143.568 182.013 143.815C181.653 144.048 181.367 144.33 181.155 144.662C180.95 144.994 180.802 145.365 180.71 145.774C180.619 146.177 180.573 146.604 180.573 147.056V152.827H178.338ZM191.395 153.145C190.259 153.145 189.26 152.898 188.398 152.404C187.544 151.903 186.877 151.207 186.397 150.318C185.924 149.421 185.687 148.383 185.687 147.204C185.687 145.954 185.92 144.87 186.386 143.953C186.859 143.035 187.516 142.325 188.356 141.824C189.196 141.323 190.174 141.072 191.289 141.072C192.454 141.072 193.446 141.344 194.265 141.887C195.084 142.424 195.695 143.19 196.097 144.186C196.507 145.181 196.669 146.364 196.585 147.733H194.371V146.929C194.357 145.601 194.103 144.62 193.609 143.984C193.122 143.349 192.377 143.031 191.374 143.031C190.266 143.031 189.433 143.381 188.875 144.08C188.317 144.779 188.038 145.788 188.038 147.109C188.038 148.365 188.317 149.34 188.875 150.032C189.433 150.716 190.237 151.059 191.289 151.059C191.981 151.059 192.578 150.904 193.079 150.593C193.588 150.275 193.983 149.823 194.265 149.237L196.436 149.926C195.992 150.949 195.317 151.744 194.414 152.309C193.51 152.866 192.504 153.145 191.395 153.145ZM187.318 147.733V146.007H195.483V147.733H187.318ZM203.504 153.145C202.438 153.145 201.517 152.88 200.74 152.351C199.97 151.821 199.374 151.101 198.95 150.19C198.534 149.273 198.325 148.242 198.325 147.098C198.325 145.947 198.537 144.92 198.961 144.016C199.384 143.105 199.984 142.389 200.761 141.866C201.545 141.337 202.473 141.072 203.546 141.072C204.627 141.072 205.534 141.337 206.268 141.866C207.01 142.389 207.567 143.105 207.941 144.016C208.323 144.927 208.513 145.954 208.513 147.098C208.513 148.242 208.323 149.269 207.941 150.18C207.56 151.091 206.999 151.814 206.258 152.351C205.516 152.88 204.598 153.145 203.504 153.145ZM203.811 151.144C204.538 151.144 205.131 150.971 205.59 150.625C206.049 150.279 206.385 149.802 206.596 149.195C206.808 148.588 206.914 147.889 206.914 147.098C206.914 146.307 206.805 145.608 206.586 145.001C206.374 144.394 206.042 143.921 205.59 143.582C205.146 143.243 204.577 143.074 203.885 143.074C203.151 143.074 202.547 143.254 202.074 143.614C201.601 143.974 201.248 144.457 201.015 145.065C200.789 145.672 200.676 146.35 200.676 147.098C200.676 147.853 200.789 148.538 201.015 149.153C201.248 149.76 201.594 150.243 202.053 150.603C202.519 150.964 203.105 151.144 203.811 151.144ZM206.914 152.827V144.599H206.66V137.577H208.884V152.827H206.914Z" fill="white"/>
</g>
<defs>
<filter id="filter0_d_98_3851" x="0.379429" y="108.647" width="254.172" height="84.7241" filterUnits="userSpaceOnUse" color-interpolation-filters="sRGB">
<feFlood flood-opacity="0" result="BackgroundImageFix"/>
<feColorMatrix in="SourceAlpha" type="matrix" values="0 0 0 0 0 0 0 0 0 0 0 0 0 0 0 0 0 0 127 0" result="hardAlpha"/>
<feOffset dy="6.51724"/>
<feGaussianBlur stdDeviation="9.77586"/>
<feComposite in2="hardAlpha" operator="out"/>
<feColorMatrix type="matrix" values="0 0 0 0 0 0 0 0 0 0 0 0 0 0 0 0 0 0 0.25 0"/>
<feBlend mode="normal" in2="BackgroundImageFix" result="effect1_dropShadow_98_3851"/>
<feBlend mode="normal" in="SourceGraphic" in2="effect1_dropShadow_98_3851" result="shape"/>
</filter>
</defs>
</svg>
